# xmcd CD database file
#
# Track frame offsets:
#	150
#	10345
#	27831
#	48308
#	67049
#	85438
#	103384
#	122376
#	138570
#	156320
#	172157
#	189427
#
# Disc length: 2821 seconds
#
# Revision: 0
# Processed by: cddbd v1.5.2PL0 Copyright (c) Steve Scherf et al.
# Submitted via: CDex 1.70beta2
#
DISCID=a80b030c
DTITLE=SWING HOLIC - VOL.13
DYEAR=2014
DGENRE=Jazz
TTITLE0=Eternal Dream
TTITLE1=ゆるふわ Sweet Home
TTITLE2=Sailor of Time
TTITLE3=MAGIC WAR
TTITLE4=夢幻の物語
TTITLE5=mechanical princess
TTITLE6=Tabula Rasa
TTITLE7=All my love, All my days
TTITLE8=Phantasmagoria
TTITLE9=リインカネーション
TTITLE10=美しく歪む時
TTITLE11=Oasis girl
EXTD=YEAR: 2014
EXTT0=
EXTT1=
EXTT2=
EXTT3=
EXTT4=
EXTT5=
EXTT6=
EXTT7=
EXTT8=
EXTT9=
EXTT10=
EXTT11=
PLAYORDER=
